<?xml version="1.0" standalone="yes"?>

<svg version="1.1" viewBox="0.0 0.0 247.30971128608923 247.30971128608923" fill="none" stroke="none" stroke-linecap="square" stroke-miterlimit="10" xmlns="http://www.w3.org/2000/svg" xmlns:xlink="http://www.w3.org/1999/xlink"><clipPath id="p.0"><path d="m0 0l247.30971 0l0 247.30971l-247.30971 0l0 -247.30971z" clip-rule="nonzero"></path></clipPath><g clip-path="url(#p.0)"><path fill="#000000" fill-opacity="0.0" d="m0 0l247.30971 0l0 247.30971l-247.30971 0z" fill-rule="nonzero"></path><path fill="#000000" fill-opacity="0.0" d="m83.44774 76.74305l81.95276 0l0 75.77953l-81.95276 0z" fill-rule="nonzero"></path><path fill="#cc0000" d="m138.01024 119.0268l-12.09375 24.437508l-5.953125 0l-12.03125 -24.437508l0 28.156258l-9.984375 0l0 -44.734383l13.515625 0l11.515625 24.578125l11.578125 -24.578125l13.4375 0l0 44.734383l-9.984375 0l0 -28.156258z" fill-rule="nonzero"></path><path fill="#000000" fill-opacity="0.0" d="m93.96213 126.40189l-90.267715 0" fill-rule="nonzero"></path><path stroke="#000000" stroke-width="8.0" stroke-linejoin="round" stroke-linecap="butt" d="m93.96213 126.40189l-62.851025 0" fill-rule="evenodd"></path><path fill="#000000" stroke="#000000" stroke-width="8.0" stroke-linecap="butt" d="m31.111103 126.40189l8.99667 -8.996666l-24.718143 8.996666l24.718143 8.996666z" fill-rule="evenodd"></path><path fill="#000000" fill-opacity="0.0" d="m153.05222 126.40189l90.267715 0" fill-rule="nonzero"></path><path stroke="#000000" stroke-width="8.0" stroke-linejoin="round" stroke-linecap="butt" d="m153.0522 126.40189l62.85103 0" fill-rule="evenodd"></path><path fill="#000000" stroke="#000000" stroke-width="8.0" stroke-linecap="butt" d="m215.90323 126.40189l-8.996674 8.996666l24.718155 -8.996666l-24.718155 -8.996666z" fill-rule="evenodd"></path><path fill="#000000" fill-opacity="0.0" d="m123.50717 94.21465l0 -90.26772" fill-rule="nonzero"></path><path stroke="#000000" stroke-width="8.0" stroke-linejoin="round" stroke-linecap="butt" d="m123.507164 94.214645l0 -62.85102" fill-rule="evenodd"></path><path fill="#000000" stroke="#000000" stroke-width="8.0" stroke-linecap="butt" d="m123.507164 31.363626l8.996666 8.996668l-8.996666 -24.718143l-8.996666 24.718143z" fill-rule="evenodd"></path><path fill="#000000" fill-opacity="0.0" d="m123.50717 153.30473l0 90.267715" fill-rule="nonzero"></path><path stroke="#000000" stroke-width="8.0" stroke-linejoin="round" stroke-linecap="butt" d="m123.507164 153.30473l0 62.85103" fill-rule="evenodd"></path><path fill="#000000" stroke="#000000" stroke-width="8.0" stroke-linecap="butt" d="m123.507164 216.15575l-8.996666 -8.996658l8.996666 24.71814l8.996666 -24.71814z" fill-rule="evenodd"></path><path fill="#000000" fill-opacity="0.0" d="m214.61824 36.49638l-63.08661 63.086613" fill-rule="nonzero"></path><path stroke="#000000" stroke-width="8.0" stroke-linejoin="round" stroke-linecap="butt" d="m214.61826 36.49638l-43.70009 43.700085" fill-rule="evenodd"></path><path fill="#000000" stroke="#000000" stroke-width="8.0" stroke-linecap="butt" d="m170.91817 80.196465l0 -12.723206l-11.1167755 23.839966l23.839981 -11.116753z" fill-rule="evenodd"></path><path fill="#000000" fill-opacity="0.0" d="m213.29715 214.2986l-63.086624 -63.086624" fill-rule="nonzero"></path><path stroke="#000000" stroke-width="8.0" stroke-linejoin="round" stroke-linecap="butt" d="m213.29713 214.2986l-43.700073 -43.70009" fill-rule="evenodd"></path><path fill="#000000" stroke="#000000" stroke-width="8.0" stroke-linecap="butt" d="m169.59706 170.59851l12.723206 0l-23.839966 -11.1167755l11.11676 23.839981z" fill-rule="evenodd"></path><path fill="#000000" fill-opacity="0.0" d="m34.173836 36.49638l63.086617 63.086613" fill-rule="nonzero"></path><path stroke="#000000" stroke-width="8.0" stroke-linejoin="round" stroke-linecap="butt" d="m34.173836 36.49638l43.70008 43.700085" fill-rule="evenodd"></path><path fill="#000000" stroke="#000000" stroke-width="8.0" stroke-linecap="butt" d="m77.87392 80.196465l-12.723206 0l23.839966 11.11676l-11.11676 -23.839973z" fill-rule="evenodd"></path><path fill="#000000" fill-opacity="0.0" d="m34.173836 214.2986l63.086617 -63.086624" fill-rule="nonzero"></path><path stroke="#000000" stroke-width="8.0" stroke-linejoin="round" stroke-linecap="butt" d="m34.173836 214.2986l43.70008 -43.70009" fill-rule="evenodd"></path><path fill="#000000" stroke="#000000" stroke-width="8.0" stroke-linecap="butt" d="m77.87392 170.59851l7.6293945E-6 12.723206l11.116753 -23.839981l-23.839966 11.1167755z" fill-rule="evenodd"></path></g></svg>

